<svg id="Слой_1" xmlns="http://www.w3.org/2000/svg" viewBox="-352 31.5 254 499.5"><style>.st0{fill:#fff}.st1{fill:#981525}.st2{fill:none}</style><g id="Слой_1_1_"><path class="st0" d="M-98.9 47.3c-.3-1.3-.9-2.6-1.6-3.9-.4-.6-.8-1.3-1.6-2l-.5-.5c-.1-.1-.2-.1-.2-.2l-.2-.1-.3-.2-.2-.1-.1-.1c.2.1-.3-.3-.3-.3-1.4-1-3.2-1.5-4.7-1.7-.8-.1-1.5-.1-2.2-.1-.7.1-1.4.1-2 .2-2.5.4-4.7 1.1-6.8 1.9-2.1.8-4.1 1.7-6.1 2.7-1.9 1-3.9 2-5.8 3.1l-2.7 1.6c-1 .6-1.8 1.1-2.8 1.7-3.6 2.3-7.3 4.5-10.7 7.1-1.7 1.3-3.5 2.5-5.2 3.8l-7.5 6-2.4 2.1-4.8 4.2c-1.6 1.5-3.1 3-4.6 4.4l-2.3 2.2c-.8.8-1.5 1.5-2.2 2.3-6 6.1-11.4 12.7-16.5 19.5-5.1 6.8-9.8 13.9-14.1 21.3-4.3 7.4-7.8 15.2-10.9 23.1-1.5 4-3 8-4.3 12s-2.4 8.1-3.5 12.2c-1.7 6.6-3 13.4-4 20.2-2.5-5.2-5.1-10.3-7.5-15.6-1.5-3.3-3.1-6.6-4.6-9.9l-4.4-10c-.7-1.7-1.4-3.3-2.1-5-.7-1.7-1.4-3.4-2.1-5-1.4-3.4-2.7-6.7-4.1-10.1-2.6-6.8-5.1-13.6-7.4-20.5-1.2-3.4-2.3-6.9-3.4-10.3-1.1-3.5-2.1-6.9-3.1-10.5-2-7-3.9-14.1-5.8-21.1-1.9-7.1-3.8-14.2-6.1-21.3-1.2-3.6-2.4-7.1-4.2-10.8-.9-1.8-1.9-3.7-3.7-5.6-.2-.2-.5-.5-.8-.7s-.5-.5-.9-.7l-.5-.3-.3-.2-.1-.1-.2-.1c-.6-.2-1.2-.4-1.8-.5l-.5.1h-1.2c-.3 0-.5.1-.7.1-1 .2-1.8.6-2.4 1.1-1.3.9-2.1 1.9-2.8 2.9s-1.2 1.9-1.7 2.8c-.9 1.9-1.6 3.7-2.3 5.5-1.2 3.7-2.2 7.2-3.1 11-.8 3.8-1.3 7.7-1.3 11.6-.1 3.9.2 7.7.7 11.4.9 7.4 2.1 14.6 3 21.8l.6 5.4c.2 1.8.4 3.7.5 5.4.3 3.6.6 7.2.7 10.9.1 3.6.2 7.2.1 10.8l-.2 5.5c-.1 1.9-.1 3.8.1 5.7.1 2 .5 3.9.9 5.8.2 1 .5 1.9.7 2.7l.2.7c.1.3.2.5.2.7l.5 1.3c1.2 3.6 2.8 7.1 4.6 10.4 3.6 6.6 8.3 12.7 13.5 18 2.1 2.1 4.2 4.1 6.4 5.9-.9-.1-1.9-.2-2.8-.1-.5 0-1 .1-1.5.1-.5.1-1 .2-1.5.2-.5.1-.9.2-1.3.3h-.3l-.2.1-.4.1c-.2.1-.5.2-.7.3-1.9.7-3.6 1.9-5 3.1-1.4 1.2-2.7 2.5-3.9 3.7-2.5 2.4-5 4.9-7.5 7.2-1.3 1.2-2.6 2.3-3.9 3.4-1.3 1.1-2.6 2.1-4.1 3.3-.7.6-1.4 1.3-2.1 1.9l-1 1-.4.5-.2.3-.2.3-1.7 2.2c-.6.7-1.1 1.5-1.6 2.3-2.1 3.1-3.7 6.7-4.7 10.2-1.1 3.5-1.8 6.9-2.7 10.1-.9 3.2-2.1 6.3-3.6 9.3-.3.8-.8 1.4-1.2 2.2-.4.7-.8 1.4-1.3 2.2l-1.4 2.2-1.4 2.2c-.5.7-.9 1.4-1.3 1.9-.1.1-.2.2-.3.4l-.1.1v.1l-.1.1c-.2.2-.5.4-.8.6-.6.4-1.1.7-1.9 1.1-.8.4-1.8.8-2.7 1.5-1.8 1.3-3.2 3.3-4 5.2-.4 1-.7 1.9-.9 2.8l-.7 2.6c-.9 3.4-1.7 6.9-2.4 10.4-.6 3.5-1.1 7.1-1.1 10.8 0 1.9.2 3.7.6 5.6.4 1.9 1.1 3.8 2.5 5.5.3.4.7.8 1.2 1.2.4.4.6.5.9.7.1.1.2.1.3.2 1 .6 2 1 3 1.2 2.1.4 4 .2 5.9-.2.6-.1 1-.6 1.2-1.2 0-1.7.2-3.4.5-5 0-.1 0-.2.1-.4 0 .6.1 1.2.2 1.8.3 1.8.8 3.5 1.7 5.2.9 1.6 2.1 3 3.4 4.2 1.3 1.2 2.7 2.3 4.2 3.2 1.5.9 3.1 1.8 4.8 2.4s3.5 1 5.3 1.2c.9.1 1.8.1 2.8 0 .5 0 .9-.1 1.4-.1.5-.1.8-.1 1.3-.2 1.8-.4 3.6-1.1 5.2-2.1s3-2.2 4.2-3.4c.6-.6 1.2-1.1 1.7-1.4.2-.2.5-.3.6-.3h.3c-.1.1-.1.3-.2.4-.8 2.2 1.5 3.3 4.8 11.3.5 1.3.9 2.4 1.2 3.3.1.4.3.7.4 1.1 0 .1.1.3.1.4 0 .1.1.2.1.3 0 .1.1.2.1.3 0 .1 0 .1.1.2 0 .1.1.3.1.4.1.3.2.5.3.8.1.1.1.3.2.4.1.1.1.2.2.4 0 .1.1.2.2.2l.3.3.1.1v.2l.1.6.1 1.1.2 2.1c.1 1.3.2 2.7.4 4.1-.2 3-.7 6-1.7 8.7-.5 1.4-1.1 2.7-1.8 4-.7 1.2-1.6 2.4-2.5 3.4-1.9 2.1-4.5 3.7-7.4 5.6-1.4.9-2.9 1.9-4.3 2.9-.7.6-1.5 1.1-2.1 1.7l-.5.4-.1.1-.1.1-.4.4c-.5.5-.8.9-1.1 1.3-1.2 1.7-2.1 3.2-2.9 4.8-.8 1.6-1.5 3.1-2.2 4.7-1.4 3.1-2.7 6.2-4 9.3-2.6 6.2-5 12.5-7.4 18.7-1.2 3.1-2.4 6.3-3.6 9.5-1.1 3.2-2.2 6.6-2.8 10.1-.6 3.5-.8 7.3-.2 10.9.5 3.6 1.6 7 2.7 10.1 1.1 3.2 2.2 6.5 3.6 9.6.7 1.6 1.5 3.2 2.3 4.7s1.8 2.9 2.2 4.1l.3.9c.1.3.1.5.2 1l.1.5v.5c0 .4.1.7.1 1.1 0 1.4-.2 2.9-.5 4.4-.7 2.9-2 5.8-3.5 8.7-1.5 2.9-3.3 5.7-4.8 9-.7 1.7-1.4 3.5-1.4 5.7 0 .3 0 .6.1.8l.2.9c.1.3.2.6.3 1l.1.2.1.1.1.3c.3.6.6.9.8 1.3.2.3.5.7.7 1 .8 1.3 1.3 2.5 1.7 4 .2.7.3 1.4.3 2.2 0 .4 0 .8.1 1.4.1.5.2 1.2.5 1.8.1.2.2.3.2.5l.2.3c.1.1.1.1.1.2l.1.1.1.2c.1.1.2.2.3.4.4.5.8.9 1.3 1.2 1 .7 2 1 2.8 1.3.9.3 1.7.5 2.4.7l.6.2.5.2c.4.1.7.2 1.1.4 1.4.6 2.6 1.3 3.8 2.3.6.5 1.1 1 1.7 1.6.6.6 1.1 1.2 1.9 1.9.4.3.9.7 1.4.9l.4.2c.1.1.4.1.6.2.2 0 .4.1.6.1h1.1l.3-.1c.4-.1.8-.3 1.1-.4.6-.4 1-.8 1.4-1.1 1.4-1.6 2.1-3.2 2.8-4.8.9-2 1.6-4 2.3-6-.1 1.8-.3 3.7-.3 5.5 0 2 0 4 .3 6.1.2 1 .3 2 .7 3.2.1.3.2.6.4.9.1.2.2.4.4.6.1.2.3.3.4.4l.1.1.1.1c.9.7 1.9.6 2.6.5.8-.2 1.3-.4 1.8-.7s1-.5 1.4-.8c.8-.6 1.6-1.1 2.4-1.6 1.5-1 3.1-1.8 4.6-1.9.3 0 .7 0 1 .1.1 0 .2 0 .5.1l.2.1h.1l.2.1c.7.3 1.2.8 1.7 1.4.5.7 1 1.5 2 2.4.3.2.5.4.9.6.2.1.4.1.6.2.3 0 .5.1.6.1h1.1c.4 0 .7-.2 1.1-.3 1.4-.7 2.1-1.6 2.7-2.4.6-.8 1.1-1.5 1.6-2.1.5-.6 1-1.1 1.6-1.5.3-.3.5-.3.8-.5l.6-.2.2-.1h.1l.3-.1c1.3-.4 2.6-.2 4.5.1.9.1 2.2.3 3.6-.4.3-.2.8-.5.9-.6l.4-.4.3-.4c.4-.5.7-1.2.9-1.7.6-2.1.7-2.5 1.8-3.6.5-.4 1-.7 1.6-1 .3-.2.7-.3 1.3-.7.3-.2.6-.4.8-.6s.4-.5.6-.7c.7-1 1-2 1.2-2.9.2-.9.3-1.8.3-2.6.1-1.6.1-3.2 0-4.7-.2-3-.4-5.8-.5-8.4-.1-2.6 0-5.1.3-7.3.1-1.2.3-2.2.6-3.2.1-.5.2-1 .4-1.4 0-.2.1-.4.2-.6.1-.2.2-.5.3-.7.8-1.6 1.9-3.1 3-4.2 1.2-1.1 2.3-2.1 3.4-2.8 1.1-.8 2.1-1.3 2.9-1.8.6-.3 1.2-.7 1.6-.9-.5.1-1 .2-1.8.4-1.8.4-4.6 1.2-7.6 3.4-1.5 1.1-3 2.5-4.2 4.6-.1.2-.3.5-.4.7-.1.2-.3.5-.4.8-.3.6-.5 1.1-.7 1.7-.4 1.1-.7 2.3-.9 3.6-.9 5-.5 10.7-.2 16.5 0 1.4.1 2.9 0 4.3s-.3 2.9-.8 3.5c-.3.3-.2.3-1.2.8-.9.5-1.8 1.1-2.5 1.8-.2.2-.4.3-.6.6-.1.2-.2.2-.4.5-.4.5-.7.9-.9 1.4-.4 1-.6 2.1-.8 2.6-.1.3-.2.5-.3.6l-.2.2-.2.1c-.2.1-.7.2-1.5.1s-1.8-.3-2.8-.3c-1.1 0-2.2.1-3.2.4l-.4.1h-.1s-.3.1-.2.1l-.2.1-.6.3c-.5.3-1.1.6-1.5.9-.9.6-1.7 1.4-2.3 2.2-.6.8-1.1 1.6-1.6 2.3-.5.7-1 1.3-1.3 1.4-.1 0-.2.1-.3.1h-.4-.1c-.1-.1-.2-.1-.3-.2-.4-.3-.9-1.1-1.6-1.9-.7-.8-1.6-1.6-2.7-2.1l-.4-.2c-.1-.1 0 0-.2-.1h-.1l-.2-.1c-.2-.1-.6-.1-.9-.2-.6-.1-1.2-.1-1.8-.1-2.4.2-4.3 1.3-6 2.3-.8.6-1.6 1.1-2.4 1.6-.7.5-1.6 1-2.1 1h-.1c0-.1-.1-.2-.1-.4-.1-.7-.2-1.6-.2-2.5 0-1.9 0-3.8.1-5.7.1-3.9.4-7.8.8-11.7.4-3.9.9-7.8 1.4-11.7.6-3.8 1.1-7.7 1.9-11.4l.2-.7.1-.3.1-.3.4-1.4.4-1.4.2-.7v-.1l.1-.1.1-.3c.7-1.7 1.5-3.4 2.3-5.2.7-1.9 1.4-3.7 2-5.5l.9-2.7c.3-1 .6-1.9.8-2.8.5-1.8.9-3.6 1.3-5.4s.7-3.5 1.3-5c.6-1.6 1.4-3 2.3-4.4.9-1.3 2-2.5 3.2-3.7 4.8-4.7 9.5-9.2 13.6-13.4 2.1-2.1 4.1-4.2 5.9-6.2s3.5-3.9 4.9-6.1c.4-.6.7-1.2.9-1.8.2-.5.4-1.1.6-1.7.3-1.1.5-2.2.7-3.3.3-2.1.3-4.1.2-5.9-.3-3.5-1.1-6.2-1.6-8-.3-.9-.5-1.5-.7-2-.1-.5-.2-.7-.2-.7-.1-.3-.4-.5-.7-.4-.3.1-.4.3-.4.5v.2s.1.2.2.7c.2.4.4 1.1.6 2 .5 1.8 1.1 4.4 1.2 7.8 0 1.7 0 3.5-.4 5.5-.2 1-.5 2-.8 3-.2.4-.4.9-.6 1.5-.1.5-.4.9-.7 1.4-1.3 1.9-3.1 3.8-4.9 5.7-1.9 2-3.9 4-6 6-4.3 4.1-9 8.4-14 13.1-1.2 1.1-2.5 2.4-3.6 4-1 1.5-2 3.1-2.7 4.9-.3.6-.5 1.2-.7 1.8V452c0-.5-.2-1-.3-1.4-.8-3.3-1.6-6.5-2.4-9.7-1.5-6.5-3-13-5.1-19.4-.1-.2-.3-.4-.6-.4s-.5.3-.5.6c.7 6.7 2 13.2 3.4 19.8.7 3.3 1.5 6.6 2.2 9.8.1.4.1.7.2 1v1.1c.1.9 0 1.6 0 2.4-.1 1.6-.3 3.1-.7 4.6-.8 3.1-2.1 6.1-3.2 9.3-1.1 3.2-2 6.5-2.7 9.9-1.2 6.6-2.6 13.1-4.2 19.6-.8 3.2-1.7 6.4-2.6 9.6-1 3.2-2 6.3-3.3 9.2-.7 1.4-1.4 2.9-2.3 3.8l-.5.5h-.6s-.1 0-.1-.1c-.1 0-.2-.1-.3-.2l-.3-.3c-1-.9-2.1-2.4-3.5-3.5-1.4-1.2-3-2.2-4.7-3-.4-.2-.9-.3-1.3-.5l-.7-.2-.6-.2-2.4-.7c-.7-.2-1.3-.5-1.7-.8-.2-.2-.4-.3-.5-.5l-.1-.1v-.1l-.1-.2v-.1c-.3-.5-.1-2.8-.6-4.6-.4-1.8-1.2-3.7-2.1-5.3-1.1-1.8-1.6-2.3-1.6-3.4s.5-2.5 1.1-3.9c1.3-2.8 3.2-5.6 4.8-8.6 1.7-3 3.2-6.2 4.2-9.8.5-1.8.7-3.6.7-5.5v-2.1l-.1-.7c0-.4-.2-1-.3-1.5-.1-.5-.3-1-.5-1.5-.7-2-1.7-3.4-2.4-4.8-.8-1.4-1.4-2.9-2-4.3-1.2-3-2.3-6-3.2-9.2-1-3.2-1.9-6.2-2.3-9.3-.4-3-.2-6 .4-9 1.2-6.1 3.9-12.2 6.4-18.4l7.6-18.5c1.3-3.1 2.6-6.1 4-9.1.7-1.5 1.4-2.9 2.1-4.4.7-1.4 1.5-2.8 2.3-3.8.2-.2.4-.5.5-.6l.1-.1.1-.1.5-.4c.7-.6 1.2-1 1.8-1.4 1.3-.9 2.6-1.8 4-2.7 2.8-1.8 5.9-3.7 8.6-6.5 5.4-5.7 7.6-13.4 7.3-20.7v-.6c-.3-1.4-.6-2.8-.9-4.3-.2-.8-.3-1.5-.6-2.3l-.3-1.1c2.2-.8 5-2 9.3-3.2 7.2-1.9 7-.5 15.5-2.6 6.3-1.6 4.4-1.9 13.9-4.8 3.3 2.5 7.4 3.9 11.7 3.9 8.7 0 16.1-5.7 19.2-13.8 2.4-.8 4.5-1.9 5.6-2.5 5.7-3 6.7-6 13.3-9.1 1.7-.8 3.3-1.4 4.6-1.8-.3.5-.6.9-1 1.4l-.1.1c-.3.4-.4.9-.2 1.3v.1c1.1 3.7 1.6 7.5 1.5 11.3v.6l-.1.7-.1 1.5c-.1 1-.3 1.8-.4 2.7-.2.9-.4 1.8-.7 2.7-.3.9-.6 1.8-1 2.6-1.4 3.5-3.6 6.6-5.8 10.1-1.1 1.7-2.2 3.6-3 5.7-.4 1-.7 2.2-1 3.3l-.2 1.7v2.6l.1 1 .3 1.8c.3 1.2.8 2.3 1.3 3.4 1.1 2.1 2.7 3.8 4.3 5.3 3.2 2.9 6.5 5.2 9.6 7.5 3.1 2.4 6 4.8 8.6 7.6 2.6 2.8 4.8 5.8 6.5 9.2l.3.6v.2l.2.3.6 1.4.6 1.4c.2.4.3.9.5 1.3.3.9.6 1.7.8 2.6.2.9.5 1.8.6 2.7.7 3.7.7 7.5.6 11.4-.2 3.9-.5 8-.5 12-.1 2 0 4.1 0 6.1.1 2 .1 4.1.4 6.1.2 2 .3 4 .6 6l.4 3c.1 1 .3 2 .5 3 .3 2 .7 4 1.1 5.9.4 2 .9 3.9 1.4 5.9 2.1 7.8 4.8 15.4 8.2 22.7.2.5.8.7 1.3.5s.8-.8.6-1.3c-2.9-7.4-5.3-15-7-22.7-.4-1.9-.8-3.9-1.2-5.8-.4-2-.6-3.9-.9-5.9-.1-1-.3-1.9-.4-2.9l-.3-2.9c-.2-2-.3-3.9-.4-5.9-.1-2-.1-3.9-.2-5.9.1-2 0-3.9.2-5.9.2-3.9.5-7.9.8-11.9s.4-8.3-.3-12.5c-.1-1.1-.4-2.1-.6-3.1s-.6-2.1-.9-3.1c-.2-.5-.3-1.1-.5-1.5l-.6-1.4-.6-1.4-.1-.3-.1-.2-.1-.3-.4-.7c-1.9-3.8-4.3-7.3-7.1-10.4-2.8-3.2-6-5.9-9.3-8.3-3.2-2.5-6.6-4.7-9.3-7.1-1.3-1.2-2.5-2.5-3.3-3.9-.4-.7-.7-1.4-.9-2.2-.1-.4-.2-.8-.3-1.1l-.1-.5c0-.2-.1-.3-.1-.6v-1.3l.1-1.2c.2-.8.3-1.7.7-2.5.6-1.7 1.4-3.3 2.4-5 2-3.3 4.3-6.9 5.8-10.9.4-1 .7-2 1-3 .3-1 .5-2.1.7-3.1.1-1.1.3-2.2.4-3.2v-3.1c-.1-3.9-.9-7.8-2.2-11.5 1.7-2.3 3.2-4.7 4.5-7.2 1.7-1.7 3.5-3.3 5.2-5 .6-2.7 1-6.5.8-10.9-.4-5.3-1.7-9.5-2.9-12.4-.3.3-.7.8-1.2 1.2v-.1c-.8-1.9-1.6-3.8-2.6-5.5-.9-1.8-1.9-3.5-2.8-5.2-.9-1.7-1.7-3.5-2.3-5.3-.4-.9-.6-1.8-.9-2.7-.3-.9-.5-2-.7-2.8-.7-3.7-.7-7.6-.1-11.3.3-1.9.7-3.8 1.3-5.6l.9-2.7c.4-.9.7-1.8 1.1-2.7.8-1.8 1.6-3.5 2.5-5.2.5-.8.9-1.7 1.4-2.5l1.4-2.2c7.2-4.3 14-9.4 20.4-15 3.2-2.8 6.3-5.8 9.3-8.9 1.5-1.5 3-3.2 4.4-4.7 1.4-1.6 2.8-3.3 4.1-4.9 2.7-3.4 5.3-6.8 7.6-10.4 2.4-3.6 4.5-7.4 6.6-11.1 4-7.6 7.3-15.5 10.3-23.5 2.9-8 5.5-16 8.1-24 2.6-8 5.1-16 7.5-24.1 2.4-8.1 4.7-16.3 5.9-25.1.3-2.2.5-4.4.5-6.8-.3-3.3-.5-5.7-1.2-8.3zm-170.8 274.6c-2.8 0-5-2.2-5-5s2.2-5 5-5 5 2.2 5 5c0 2.7-2.2 5-5 5zm52.5-8.6c-3.1 6.1-9 10.2-15.8 10.2-2.7 0-5.3-.7-7.6-1.8-6.1-3.1-10.4-9.9-10.4-17.8 0-2.2.3-4.4 1-6.4.3-.8.5-1.6.9-2.3.2-.5.5-1 .7-1.5 3.1-5.8 8.9-9.7 15.5-9.7 5.3 0 10.1 2.5 13.4 6.5-.1 0-.1.1-.2.1l.1.1c-1 .4-1.9.7-2.7 1-2.7-2.8-6.5-4.6-10.6-4.6-5 0-9.6 2.6-12.4 6.6-.1.2-.2.3-.4.5-.1.2-.3.4-.4.7l-.3.6c-.3.5-.5 1-.7 1.5-.8 2-1.3 4.2-1.3 6.5 0 7.7 4.9 14.2 11.5 16 1.3.4 2.6.6 4 .6 5.3 0 10-2.9 12.8-7.3.9.2 1.9.2 2.9.1v.4zm-8.8-10.5c.9 4.7 1.5 7.5 3.4 9-2.2 3.2-5.6 5.5-9.5 5.7h-1.4c-1 0-2-.2-3-.5-5.3-1.7-9.1-7-9.1-13.2 0-2.2.5-4.3 1.3-6.1 2-4.4 6.1-7.4 10.8-7.6h1.2c2.8.1 5.5 1.2 7.4 3.1-.5.3-.8.6-1.1 1-1.4 1.7-.9 4 0 8.6zm23.2-5.1c0 .2-.1.4-.2.6 0 .1-.1.2-.1.3v.1l-.1.1c0 .1-.1.2-.2.3 0 .1-.1.2-.2.2 0 .1-.1.1-.1.2v.1l-.6.6c-.2.1-.3.2-.5.3-.1 0-.1.1-.2.1s-.2.1-.3.1c-.2.1-.4.1-.6.2-.3 0-.5.1-.8.1-.5 0-1.1-.1-1.5-.3-1-.4-1.7-1.2-2.1-2.1-.2-.5-.3-1-.3-1.5 0-.6.1-1.1.3-1.6.4-1 1.2-1.7 2.1-2.1.5-.2 1-.3 1.5-.3s1.1.1 1.5.3c1 .4 1.7 1.2 2.1 2.1.2.5.3 1 .3 1.6.1.1.1.3 0 .6zM-106.2 61c-1.1 7.9-3.4 15.9-5.7 23.9-2.4 8-5 15.9-7.6 23.9s-5.2 15.9-8 23.7-5.9 15.4-9.4 22.8c-1.8 3.6-3.8 7.2-5.9 10.7-2.1 3.5-4.4 6.9-6.8 10.2-1.2 1.6-2.5 3.3-3.7 4.9-1.3 1.7-2.6 3.2-3.9 4.8-2.7 3.1-5.5 6.2-8.3 9.1-5.8 5.9-12 11.4-18.6 16.5h-.1l-.1.1-.3.3-1.6 2.6c-.5.9-1 1.8-1.5 2.6-1 1.8-1.8 3.6-2.7 5.5-.4.9-.8 1.9-1.1 2.8-.3 1-.7 1.9-1 2.9-.6 2-1.1 4-1.4 6-.6 4.1-.7 8.3.1 12.4.3 1.1.4 1.9.7 3 .3 1 .6 2 1 3 .7 1.9 1.6 3.8 2.5 5.6.9 1.8 1.9 3.5 2.8 5.3.9 1.7 1.8 3.5 2.5 5.2.2.5.4.9.5 1.4-.4.5-.9.9-1.4 1.4-4.5 4.6-6.8 6.9-7.6 7.5-5.3 3.7-6.9 1.5-12.5 5.5-1.7 1.2-3.2 2.6-6.3 4-1.5.7-2 .7-4.6 1.6-1.9-2.5-4.3-4.7-7.1-6.1-2.8-1.5-5.9-2.3-9.1-2.3-9.5 0-17.5 6.9-20 16.3-3.2.9-7.3 2.4-12.5 4.2-10.2 3.7-9.1 4.2-15.4 6-5.9 1.7-10 2.1-12.6 2.8-.7-.5-1.6-.8-2.5-.9h-1.1l-.3.1c-.2 0-.4.1-.6.1-.7.2-1.2.5-1.6.8-.9.6-1.5 1.2-2.1 1.8-1.2 1.1-2.4 2.1-3.6 2.9-1.2.8-2.6 1.3-4 1.6-.3.1-.8.2-1.1.2s-.7.1-1.1.1h-2.2c-1.5-.1-3-.4-4.4-.9-1.5-.5-2.8-1.2-4.2-1.9-1.4-.8-2.7-1.6-3.9-2.6-1.2-1-2.3-2-3.2-3.3-.8-1.2-1.4-2.6-1.8-4.1-.4-1.5-.5-3.1-.4-4.7 0-.8.1-1.6.1-2.5v-.5c0-.1 0-.1-.1-.2h.3c.2 0 .4-.1.6-.1.4-.1.7-.2.9-.4 1.1-.6 2-1.2 2.9-1.8.9-.6 1.8-1.3 2.7-2 .9-.7 1.8-1.3 2.6-2s1.6-1.4 2.3-2.2c.6-.8 1.2-1.6 1.6-2.4.5-.8.8-1.5 1.1-2.2s.5-1.3.6-1.8c.2-.5.3-1 .4-1.2.1-.3.1-.4.1-.4.1-.2.1-.4.1-.6-.1-.8-.8-1.5-1.7-1.4-.8.1-1.5.8-1.4 1.7v1.4c0 .9-.2 2.2-.8 3.7-.3.7-.7 1.5-1.3 2.2-.5.7-1.2 1.4-2 1.9-1.6 1.2-3.7 2-5.7 2.9-1 .5-2 1-2.9 1.4-.2.1-.4.2-.6.2-.1 0-.2.1-.2.1h-.1v.1c-.2 0-.5-.2-.7-.2s-.3-.1-.4-.1c-.7-.2-1.4-.7-2.1-1.2s-1.2-1.1-1.8-1.7c-1.1-1.2-1.9-2.3-2.4-3.1l-.9-1.2c-.1-.1-.3-.2-.4-.2-.2.1-.3.3-.3.5 0 0 0 .1.1.4.1.3.2.6.3 1.1.3 1 .9 2.3 1.8 3.8.5.7 1 1.6 1.8 2.3.8.7 1.7 1.5 3 2 .2.1.3.1.5.1-.1.1-.1.1-.1.2-.1.1-.1.3-.2.4-.2.5-.3.9-.4 1.3-.2.8-.4 1.6-.7 2.5l-.6 2.4c-.3 1.3-.7 2.5-1.2 3.8-1.3.1-2.6.1-3.7-.2-.7-.2-1.3-.5-1.8-.8-.2-.1-.8-.5-.8-.7-.2-.2-.4-.4-.6-.7-1.6-2.2-1.9-5.6-1.7-8.9s.7-6.6 1.4-10c.7-3.3 1.6-6.6 2.6-10l.7-2.5c.2-.8.5-1.5.8-2.2.6-1.3 1.3-2.2 2.3-3 .5-.3 1.1-.6 1.9-1 .8-.4 1.8-.9 2.7-1.5.5-.3.8-.6 1.3-1l.6-.6.6-.6c.7-.8 1.2-1.6 1.7-2.4l1.5-2.2 1.4-2.2c.5-.7.9-1.5 1.4-2.3.4-.8.9-1.6 1.3-2.4 1.7-3.2 3-6.7 4.1-10.2s1.8-6.9 2.7-10.1c.9-3.2 2.2-6.1 3.9-8.9.5-.7.9-1.4 1.3-2l1.5-2 .2-.2.2-.2.4-.5.8-.9c.5-.6 1.1-1.1 1.7-1.7 1.2-1.1 2.6-2.3 4-3.5 1.3-1.2 2.6-2.4 3.9-3.7 2.5-2.5 4.9-5 7.3-7.6 2.4-2.5 4.6-5.1 7.3-6.2.3-.1.7-.3 1-.4.4-.1.9-.3 1.2-.3.4-.1.7-.1 1-.2l1.1-.1c1.5-.1 3.1.1 4.7.5 3.1.8 6.1 2.3 9 4 .8.5 1.9.3 2.5-.5.6-.8.4-2-.5-2.5-6-4.1-11.6-8.6-16.6-13.8-5-5.1-9.3-10.9-12.6-17.2-1.6-3.2-3-6.4-4.1-9.8l-.4-1.3-.2-.6-.2-.7c-.2-.9-.5-1.8-.6-2.6-.4-1.7-.6-3.4-.7-5.1-.1-1.7 0-3.4.1-5.2l.3-5.5c.2-3.7.3-7.4.2-11.2 0-3.7-.2-7.4-.4-11.1-.1-1.9-.2-3.7-.4-5.5l-.5-5.6c-.7-7.4-1.8-14.7-2.4-21.8-.7-7.1-.6-14 1.1-20.8.8-3.3 1.9-6.9 3.1-10.1.6-1.6 1.3-3.2 2-4.6.4-.7.8-1.3 1.2-1.9.3-.4.6-.8.9-.9l.1.1.2.2c.7.8 1.5 2.2 2.2 3.6 1.4 3 2.6 6.4 3.6 9.8 2.1 6.9 3.9 13.9 5.7 21 1.9 7.1 3.7 14.2 5.7 21.3 1 3.5 2.1 7.1 3.2 10.6 1.1 3.6 2.3 7.1 3.5 10.6 2.4 7 5.1 13.9 8 20.7 1.5 3.4 2.9 6.8 4.4 10.2.8 1.7 1.6 3.4 2.4 5 .8 1.7 1.6 3.3 2.4 5l2.5 5 2.6 4.9c.9 1.6 1.8 3.2 2.6 4.9l2.7 4.8c3.7 6.4 7.6 12.7 11.7 18.8v.1c.2.4.6.7 1.1.8.8.1 1.6-.4 1.7-1.2v-.1c1.4-8.2 3.4-16.3 5.7-24.3 1.2-4 2.5-7.9 3.9-11.9 1.4-3.9 2.9-7.8 4.5-11.6 3.3-7.6 6.9-15.1 11.2-22.1 4.3-7.1 9-13.9 14.2-20.4l1.9-2.4 2-2.4c1.3-1.6 2.6-3.2 4-4.7l4.2-4.6 4.3-4.4c.7-.7 1.4-1.5 2.2-2.2l2.3-2.1 4.5-4.2 4.7-4c.8-.7 1.6-1.4 2.4-2l2.4-1.9 4.9-3.8c1.7-1.2 3.4-2.4 5.1-3.5 3.3-2.4 6.9-4.5 10.4-6.7.9-.5 1.8-1.1 2.6-1.6l2.7-1.5c1.8-1 3.5-1.9 5.4-2.8 1.8-.9 3.6-1.7 5.4-2.4s3.6-1.2 5.2-1.5c.4-.1.8-.1 1.2-.1h.9c.5.1.8.2 1.1.4l.1.1.3.2.2.1c.1 0 .1.1.1.1v.2l.1.1c.1.1.1.2.2.3.3.5.6 1.1.7 1.9.4 1.5.5 3.3.5 5.2 0 1.9-.2 3.8-.5 5.8z"/><path class="st1" d="M-288.4 332.9l-.3-.3c-.1-.1-.1-.2-.2-.2-.1-.1-.1-.2-.2-.4-.1-.1-.1-.3-.2-.4-.1-.2-.2-.5-.3-.8 0-.1-.1-.2-.1-.4 0-.1 0-.1-.1-.2 0-.1-.1-.2-.1-.3 0-.1-.1-.2-.1-.3 0-.1-.1-.3-.1-.4-.1-.3-.2-.7-.4-1.1-.3-.9-.8-2.1-1.3-3.4-3.3-8-5.6-9.1-4.8-11.3 0-.1.1-.2.1-.3h-.1c-.1 0-.4.1-.6.3-.5.3-1.1.8-1.7 1.4-1.2 1.2-2.6 2.4-4.2 3.4s-3.4 1.7-5.2 2.1c-.5.1-.8.1-1.3.2-.5 0-.9.1-1.4.1-1 .1-1.9.1-2.8 0-1.8-.2-3.6-.6-5.3-1.2s-3.3-1.5-4.8-2.4c-1.5-.9-2.9-2-4.2-3.2-1.3-1.2-2.5-2.6-3.4-4.2-.9-1.7-1.4-3.4-1.7-5.2-.1-.6-.2-1.2-.2-1.8-.1.2-.1.3-.1.4-.3 1.6-.5 3.3-.5 5-.2.6-.6 1.1-1.2 1.2-1.9.4-3.8.6-5.9.2-1-.2-2-.6-3-1.2-.1-.1-.2-.1-.3-.2-4.8 5.6-7.7 12.9-7.7 20.9 0 17.7 14.4 32 32 32 16.2 0 29.7-12.1 31.7-27.8v-.1c.1.1.1 0 0-.1zm-9.2 5.6c-.8 4.8-4.5 8.4-8.9 9.3 1.1-2.6 1.7-5.4 1.7-8.5 0-5.6-2-10.7-5.3-14.2 1-.1 2-.1 3.1.1 6.3 1.1 10.5 7.1 9.4 13.3z"/><path class="st0" d="M-233.7 472.2c.2-.1.3-.1.4-.2-.1 0-.2.1-.3.3h-.4c.1 0 .2-.1.3-.1zM-233 471.9s-.1 0-.3.1c.2-.1.3-.1.3-.1zM-250.9 303.7c0-2.2.3-4.3.9-6.2-.6 2-1 4.1-1 6.4 0 7.8 4.3 14.6 10.4 17.8.1 0 .2-.1.3-.1-6.2-3.1-10.6-10-10.6-17.9zm2.6-.1c0-2.3.4-4.5 1.3-6.5-.8 2-1.3 4.3-1.3 6.7 0 7.6 4.9 14.1 11.5 16 .1 0 .1-.1.1-.2-6.7-1.8-11.6-8.3-11.6-16zm11.8 13.3c-5.2-1.7-9-7-9-13.2 0-2.2.5-4.3 1.3-6.1h-.1c-.8 1.8-1.3 3.9-1.3 6.1 0 6.3 3.9 11.6 9.1 13.2zm-51.9 16l-.3-.3c-.1-.1-.1-.2-.2-.2-.1-.1-.1-.2-.2-.4-.1-.1-.1-.3-.2-.4-.1-.2-.2-.5-.3-.8 0-.1-.1-.2-.1-.4 0-.1 0-.1-.1-.2s0-.1-.1-.2c.5 1.6.8 2.4 1.4 3 .2.1.2 0 .1-.1zM-332 297zM-306 521.9zM-331.7 293.5zM-293.7 38.5z"/><path class="st2" d="M-258.9 244.3c.7-2 1.5-3.4 2.8-4.5-1.3 1.2-2.1 2.6-2.8 4.5zM-242.6 257.6c4.7-3.5 6.6-9.3 4.9-14 1.8 4.7-.2 10.6-4.9 14zM-236.5 316.9c1 .3 2 .5 3 .6-1-.1-2-.2-3-.6-5.3-1.6-9.1-6.9-9.1-13.2 0-2.2.5-4.3 1.3-6.1 2-4.4 6.1-7.4 10.8-7.6-4.7.3-8.8 3.3-10.7 7.7-.8 1.8-1.3 3.9-1.3 6.1 0 6.1 3.8 11.4 9 13.1zM-202.7 296.9c0 .3 0 .5-.1.8 0 .2-.1.4-.2.6 0 .1-.1.2-.1.3v.1l-.1.1c0 .1-.1.2-.2.3 0 .1-.1.2-.2.2 0 .1-.1.1-.1.2v.1l-.6.6c-.2.1-.3.2-.5.3-.1 0-.1.1-.2.1s-.2.1-.3.1c-.2.1-.4.1-.6.2-.3 0-.5.1-.8.1-.5 0-1.1-.1-1.5-.3-1-.4-1.7-1.2-2.1-2.1-.2-.5-.3-1-.3-1.5 0-.6.1-1.1.3-1.6.4-1 1.2-1.7 2.1-2.1.5-.2 1-.3 1.5-.3s1.1.1 1.5.3c1 .4 1.7 1.2 2.1 2.1.3.3.4.8.4 1.4z"/><path class="st2" d="M-219.6 290.8c-1 .4-1.9.7-2.7 1-2.7-2.8-6.5-4.6-10.6-4.6-5 0-9.6 2.6-12.4 6.6 2.8-4.1 7.4-6.8 12.5-6.8 4.1 0 7.8 1.8 10.6 4.6.7-.3 1.6-.6 2.5-.9l.1.1zM-217.2 313.3c-3.1 6.1-9 10.2-15.8 10.2-2.7 0-5.3-.7-7.6-1.8-6.1-3.1-10.4-9.9-10.4-17.8 0-2.2.3-4.4 1-6.4.3-.8.5-1.6.9-2.3-.3.7-.6 1.5-.8 2.3-.6 2-.9 4-.9 6.2 0 7.9 4.4 14.8 10.6 17.8 2.3 1.1 4.8 1.8 7.4 1.8 6.6 0 12.4-4 15.6-10z"/><path class="st0" d="M-293.9 39h.3-.3c.1 0 .1 0 0 0zM-233.4 246.4c-.3-3.7-1.5-6.5-1.5-6.5-1-2.3-2-3.3-1.9-4.9.1-1.9 1.8-3.4 3.1-4.4-3-.3-20.4-1.7-26.8 7.9-2.4 3.7-3.3 9-4.5 16.8-.7 4.5-1 8.3-1.1 10.9 1.2-1 3-2.4 5.6-3.5 7.7-3.2 11.4.7 17.5-1.9 5.8-2.5 10-9.2 9.6-14.4zm-23.7 12c-2.3.3-4.1.8-5.3 1.1.2-2 .6-4.7 1.4-7.9.5-2 1-3.8 1.4-5.2.1-.2.1-.4.2-.6s.1-.4.2-.6l.3-.9c.7-1.9 1.5-3.3 2.8-4.5l.3-.3c4.1-3.3 12.8-4 16.8 1.5.3.5.6.9.9 1.4l.3.6c0 .1.1.3.1.4v.1c1.6 4.7-.2 10.5-4.9 14-2.9 2.2-6-.3-14.5.9zM-201.3 151.9v-.7c.1-2 .4-4 .8-5.9.4-2 .9-3.9 1.6-5.8.7-1.9 1.4-3.8 2.3-5.6.9-1.8 1.9-3.6 3.1-5.4.1-.2.1-.5-.1-.7-.2-.2-.6-.2-.8 0-1.5 1.5-2.9 3.1-4.2 4.9-1.2 1.8-2.4 3.6-3.3 5.6-1 2-1.8 4-2.4 6.1-.6 2.1-1.1 4.2-1.4 6.4l-.1.8-.1.8-.1.8v.9c0 1.2 0 2.4.2 3.5.3 2.4 1 4.6 1.6 6.5s1.1 3.8 1.4 5.8c.1.5.2 1 .2 1.4l.2 1.6.1 1.4v1.4c0 1.9-.4 3.6-.8 5.7s-.8 4.4-.8 6.7.2 4.4.5 6.6l.1.8.1.5.1.4.3 1.5.7 3.1c.5 2.2 1.1 4.2 1.7 6.2.6 2 1.3 4 1.7 5.9.4 2 .5 4 .3 6s-.6 4-1.2 6c-.1.4 0 .8.4 1s.9.1 1.2-.3c.6-1.1 1.2-2.2 1.7-3.3s1-2.3 1.3-3.5l.3-.9c.1-.4.2-.6.2-.9.2-.6.3-1.2.4-1.9.2-1.3.4-2.6.4-3.8 0-1.3-.1-2.6-.1-3.7-.1-1.2-.1-2.2.1-3.2s.5-1.9 1-2.8l.2-.4.2-.3c.1-.2.3-.4.4-.7.3-.4.6-.9.9-1.3 1.3-1.7 2.9-3.4 4.6-5.1.9-.8 1.7-1.7 2.5-2.5l2.6-2.5c.9-.9 1.8-1.9 2.5-3 .8-1.1 1.4-2.4 1.8-3.6.4-1.3.7-2.6.8-3.9.1-1.3 0-2.6-.2-3.8 0-.3-.3-.5-.6-.6-.4-.1-.7.2-.8.6-.2 1.2-.4 2.3-.7 3.4-.3 1.1-.8 2.1-1.3 3.1s-1.1 1.8-1.8 2.6-1.5 1.5-2.4 2.3c-.9.7-1.9 1.6-2.8 2.4l-2.7 2.4c-1.8 1.7-3.6 3.4-5.2 5.6-.4.6-.8 1.1-1.1 1.7-.2.3-.3.6-.5.9l-.2.5-.2.4c-.5 1.3-.9 2.7-1 4.2s.1 2.8.4 4c.3 1.2.5 2.3.7 3.5 0 .3.1.6.1.9-.3-2.1-.7-4.1-1.1-6-.4-2-.8-4.1-1-6.1l-.3-3.1-.2-1.6v-.4.1-1.1c0-1.9-.1-4 .1-5.9.2-1.9.6-3.8 1.1-5.7.6-2 1.1-4.4 1.1-6.7v-1.7l-.1-1.8c0-.5-.1-1-.2-1.6-.1-.6-.2-1.1-.3-1.7-.4-2.2-1-4.4-1.7-6.4-.7-2.1-1.4-3.8-1.7-5.6-.2-.9-.3-1.8-.3-2.7v-1.5l-.2-1.2zM-217.3 313.3c-3.1 6-9 10-15.6 10-2.6 0-5.1-.6-7.4-1.8-6.2-3.1-10.6-9.9-10.6-17.8 0-2.2.3-4.3.9-6.2.2-.8.5-1.5.8-2.3-.3.7-.6 1.5-.9 2.3-.6 2-1 4.1-1 6.4 0 7.8 4.3 14.6 10.4 17.8 2.3 1.2 4.9 1.8 7.6 1.8 6.9 0 12.8-4.1 15.8-10.2zm-2.4-22.6c-.9.4-1.8.6-2.5.9-2.8-2.8-6.5-4.6-10.6-4.6-5.1 0-9.7 2.7-12.5 6.8 2.8-4 7.3-6.6 12.4-6.6 4.1 0 7.9 1.8 10.6 4.6.8-.3 1.7-.6 2.7-1l-.1-.1zm-25.8 13c0-2.2.5-4.3 1.3-6.1 2-4.4 6-7.4 10.7-7.7-4.7.2-8.8 3.3-10.8 7.6-.8 1.9-1.3 4-1.2 6.2-.1 6.3 3.8 11.6 9 13.2 1 .3 2 .5 3 .5-1-.1-2.1-.3-3-.6-5.2-1.6-9-6.9-9-13.1zm-42.9 29.2v.1c.1.1.1 0 0-.1zM-289.8 330c0 .1.1.2.1.3 0-.1 0-.2-.1-.3z"/></g></svg>